<mxfile host="app.diagrams.net" modified="2023-10-02T21:24:11.079Z" agent="Mozilla/5.0 (X11; Linux x86_64; rv:109.0) Gecko/20100101 Firefox/115.0" version="22.0.0" etag="R0CiFqfUO_T1pJKmGeLi" type="github">
  <diagram name="Page-1" id="dsoo6B5APYJ4XMnvXzk4">
    <mxGraphModel>
      <root>
        <mxCell id="0" />
        <mxCell id="1" parent="0" />
      </root>
    </mxGraphModel>
  </diagram>
</mxfile>
